<svg width="50" height="30" viewBox="0 0 50 30" fill="none" xmlns="http://www.w3.org/2000/svg">
<path d="M25 0.416687C23.0661 0.416687 21.2115 1.18491 19.844 2.55237C18.4766 3.91982 17.7083 5.77448 17.7083 7.70835C17.7083 9.64222 18.4766 11.4969 19.844 12.8643C21.2115 14.2318 23.0661 15 25 15C26.9339 15 28.7885 14.2318 30.156 12.8643C31.5234 11.4969 32.2917 9.64222 32.2917 7.70835C32.2917 5.77448 31.5234 3.91982 30.156 2.55237C28.7885 1.18491 26.9339 0.416687 25 0.416687ZM25 4.58335C25.8288 4.58335 26.6237 4.91259 27.2097 5.49864C27.7958 6.0847 28.125 6.87955 28.125 7.70835C28.125 8.53716 27.7958 9.33201 27.2097 9.91806C26.6237 10.5041 25.8288 10.8334 25 10.8334C24.1712 10.8334 23.3763 10.5041 22.7903 9.91806C22.2042 9.33201 21.875 8.53716 21.875 7.70835C21.875 6.87955 22.2042 6.0847 22.7903 5.49864C23.3763 4.91259 24.1712 4.58335 25 4.58335ZM11.4583 6.66669C10.077 6.66669 8.75224 7.21542 7.77549 8.19217C6.79873 9.16892 6.25 10.4937 6.25 11.875C6.25 13.8334 7.35417 15.5209 8.9375 16.4167C9.6875 16.8334 10.5417 17.0834 11.4583 17.0834C12.375 17.0834 13.2292 16.8334 13.9792 16.4167C14.75 15.9792 15.3958 15.3542 15.875 14.6042C14.3573 12.6262 13.5368 10.2015 13.5417 7.70835V7.12502C12.9167 6.83335 12.2083 6.66669 11.4583 6.66669ZM38.5417 6.66669C37.7917 6.66669 37.0833 6.83335 36.4583 7.12502V7.70835C36.4583 10.2084 35.6458 12.625 34.125 14.6042C34.375 15 34.6458 15.3125 34.9583 15.625C35.9191 16.5565 37.2035 17.0792 38.5417 17.0834C39.4583 17.0834 40.3125 16.8334 41.0625 16.4167C42.6458 15.5209 43.75 13.8334 43.75 11.875C43.75 10.4937 43.2013 9.16892 42.2245 8.19217C41.2478 7.21542 39.923 6.66669 38.5417 6.66669ZM25 19.1667C20.125 19.1667 10.4167 21.6042 10.4167 26.4584V29.5834H39.5833V26.4584C39.5833 21.6042 29.875 19.1667 25 19.1667ZM9.8125 20.3125C5.79167 20.7917 0 22.8334 0 26.4584V29.5834H6.25V25.5625C6.25 23.4584 7.6875 21.7084 9.8125 20.3125ZM40.1875 20.3125C42.3125 21.7084 43.75 23.4584 43.75 25.5625V29.5834H50V26.4584C50 22.8334 44.2083 20.7917 40.1875 20.3125ZM25 23.3334C28.1875 23.3334 31.75 24.375 33.8125 25.4167H16.1875C18.25 24.375 21.8125 23.3334 25 23.3334Z" fill="#012245"/>
</svg>
