<svg width="46" height="36" viewBox="0 0 46 36" fill="none" xmlns="http://www.w3.org/2000/svg">
<path d="M25.3374 0.937516C26.1749 0.416683 27.1999 0.325016 28.104 0.668766L28.3999 0.800016L43.9082 8.63543C44.5636 8.96887 45.0814 9.52135 45.3718 10.1969C45.6622 10.8724 45.7068 11.6284 45.4978 12.3333C44.6853 15.1063 44.7749 16.2708 45.3061 17.5854C45.8061 18.825 45.5145 20.3813 44.3478 21.2958L44.0832 21.4833L22.6582 35.0438C21.7603 35.6125 20.6165 35.7 19.6228 35.2146L11.6228 31.2667L8.28113 29.5896L5.90613 28.3771L4.45613 27.6167L3.70613 27.2083L3.16238 26.8958C1.03738 25.6146 0.37488 23.0104 0.38738 21.0208C0.395713 18.9979 1.09155 16.4708 3.0228 15.0833L3.6478 14.6521L5.4353 13.4833L9.69571 10.7625L25.3374 0.9396V0.937516ZM40.7353 15.2667L22.6665 26.7042C22.5207 26.7979 22.3665 26.8771 22.2103 26.9438C21.9811 27.7938 21.902 28.4042 21.9103 28.9708C21.9145 29.3104 21.952 29.6542 22.0249 30.0479L22.1124 30.4583L41.1707 18.3958C40.8984 17.5574 40.751 16.6835 40.7332 15.8021L40.7353 15.2667ZM4.83321 19.4125C4.64513 19.9335 4.55062 20.4836 4.55405 21.0375C4.5478 22.4375 5.0478 23.1688 5.31446 23.3292L5.95613 23.6938L7.2603 24.3875L10.9478 26.2688L17.7707 29.6667C17.754 29.4566 17.7443 29.2461 17.7415 29.0354C17.736 28.0508 17.8622 27.0699 18.1165 26.1188L4.83321 19.4104V19.4125ZM39.5353 11.0958L27.0457 4.78335L12.9624 13.625L8.38321 16.5396L20.9374 22.8729L39.5353 11.0979V11.0958ZM25.279 8.28335C25.5159 7.83082 25.9107 7.48107 26.3885 7.30055C26.8663 7.12003 27.3938 7.12132 27.8707 7.30418L28.0915 7.40418L32.4665 9.69585C32.9395 9.94135 33.3003 10.3587 33.475 10.8622C33.6496 11.3656 33.6247 11.9168 33.4053 12.4024C33.186 12.888 32.7889 13.2711 32.2958 13.473C31.8026 13.6748 31.2509 13.68 30.754 13.4875L30.5332 13.3875L26.1582 11.0958C25.9158 10.9689 25.7007 10.7955 25.5253 10.5855C25.35 10.3754 25.2177 10.1329 25.136 9.87172C25.0544 9.61054 25.025 9.33584 25.0495 9.06331C25.0741 8.79077 25.1521 8.52574 25.279 8.28335Z" fill="#012245"/>
</svg>
